Coordinates
nRows=126
nColumns=2
inDegrees=yes
endheader
time	ankle_angle_r	
2.875	 -0.388009	
2.9375	 -0.408536	
3	 -0.335693	
3.0625	 -0.411987	
3.125	 -0.377473	
3.1875	 -0.350952	
3.25	 -0.407628	
3.3125	 -0.355493	
3.375	 -0.387283	
3.4375	 -0.391824	
3.5	 -0.371297	
3.5625	 -0.371479	
3.625	 -0.324794	
3.6875	 -0.370207	
3.75	 -0.390916	
3.8125	 -0.381470	
3.875	 -0.402905	
3.9375	 -0.396729	
4	 -0.350952	
4.0625	 -0.350952	
4.125	 -0.305176	
4.1875	 -0.396729	
4.25	 -0.382196	
4.3125	 -0.343141	
4.375	 -0.366211	
4.4375	 -0.350589	
4.5	 -0.343686	
4.5625	 -0.373295	
4.625	 -0.367664	
4.6875	 -0.390007	
4.75	 -0.357492	
4.8125	 -0.326792	
4.875	 -0.390552	
4.9375	 -0.332424	
5	 -0.369844	
5.0625	 -0.415984	
5.125	 -0.371661	
5.1875	 -0.437237	
5.25	 -0.417074	
5.3125	 -0.407083	
5.375	 -0.442505	
5.4375	 -0.355493	
5.5	 -0.396729	
5.5625	 -0.396729	
5.625	 -0.381470	
5.6875	 -0.453949	
5.75	 -0.430879	
5.8125	 -0.391824	
5.875	 -0.439235	
5.9375	 -0.366211	
6	 -0.403268	
6.0625	 -0.335693	
6.125	 -0.320435	
6.1875	 -0.396729	
6.25	 -0.348772	
6.3125	 -0.379472	
6.375	 -0.364394	
6.4375	 -0.305176	
6.5	 -0.289917	
6.5625	 -0.334422	
6.625	 -0.334603	
6.6875	 -0.322251	
6.75	 -0.352405	
6.8125	 -0.350952	
6.875	 -0.411987	
6.9375	 -0.350952	
7	 -0.366211	
7.0625	 -0.381470	
7.125	 -0.351679	
7.1875	 -0.380380	
7.25	 -0.352405	
7.3125	 -0.396729	
7.375	 -0.366211	
7.4375	 -0.349681	
7.5	 -0.352405	
7.5625	 -0.323704	
7.625	 -0.383286	
7.6875	 -0.364213	
7.75	 -0.383650	
7.8125	 -0.399090	
7.875	 -0.335693	
7.9375	 -0.368936	
8	 -0.341506	
8.0625	 -0.302088	
8.125	 -0.369481	
8.1875	 -0.344049	
8.25	 -0.377837	
8.3125	 -0.377655	
8.375	 -0.358218	
8.4375	 -0.374567	
8.5	 -0.324794	
8.5625	 -0.355493	
8.625	 -0.406174	
8.6875	 -0.386919	
8.75	 -0.381470	
8.8125	 -0.401996	
8.875	 -0.366211	
8.9375	 -0.387101	
9	 -0.402541	
9.0625	 -0.378200	
9.125	 -0.430153	
9.1875	 -0.424703	
9.25	 -0.407628	
9.3125	 -0.435784	
9.375	 -0.366211	
9.4375	 -0.380380	
9.5	 -0.374204	
9.5625	 -0.381470	
9.625	 -0.450134	
9.6875	 -0.411987	
9.75	 -0.449771	
9.8125	 -0.434331	
9.875	 -0.373114	
9.9375	 -0.396729	
10	 -0.379290	
10.0625	 -0.375112	
10.125	 -0.451587	
10.1875	 -0.411987	
10.25	 -0.423613	
10.3125	 -0.432877	
10.375	 -0.371661	
10.4375	 -0.396729	
10.5	 -0.371297	
10.5625	 -0.396729	
10.625	 -0.437782	
10.6875	 -0.411987	
